<?xml version="1.0" encoding="UTF-8"?>
<svg xmlns="http://www.w3.org/2000/svg" xmlns:xlink="http://www.w3.org/1999/xlink" width="30pt" height="30.000001pt" viewBox="0 0 30 30.000001" version="1.2">
<defs>
<clipPath id="clip1">
  <path d="M 0.484375 0 L 29.515625 0 L 29.515625 29 L 0.484375 29 Z M 0.484375 0 "/>
</clipPath>
</defs>
<g id="surface1">
<g clip-path="url(#clip1)" clip-rule="nonzero">
<path style=" stroke:none;fill-rule:nonzero;fill:rgb(15.289307%,15.289307%,15.289307%);fill-opacity:1;" d="M 28.574219 12.816406 L 26.625 10.867188 C 26.160156 10.40625 25.78125 9.492188 25.78125 8.835938 L 25.78125 6.082031 C 25.78125 4.769531 24.710938 3.699219 23.402344 3.699219 L 20.644531 3.699219 C 19.992188 3.699219 19.078125 3.320312 18.613281 2.855469 L 16.664062 0.910156 C 15.742188 -0.015625 14.226562 -0.015625 13.300781 0.910156 L 11.351562 2.859375 C 10.886719 3.320312 9.972656 3.699219 9.320312 3.699219 L 6.5625 3.699219 C 5.253906 3.699219 4.183594 4.769531 4.183594 6.082031 L 4.183594 8.835938 C 4.183594 9.488281 3.804688 10.40625 3.34375 10.867188 L 1.394531 12.816406 C 0.46875 13.742188 0.46875 15.257812 1.394531 16.183594 L 3.34375 18.132812 C 3.804688 18.59375 4.183594 19.511719 4.183594 20.164062 L 4.183594 22.917969 C 4.183594 24.226562 5.253906 25.296875 6.5625 25.296875 L 9.320312 25.296875 C 9.972656 25.296875 10.890625 25.675781 11.351562 26.140625 L 13.300781 28.089844 C 14.226562 29.011719 15.742188 29.011719 16.664062 28.089844 L 18.613281 26.140625 C 19.078125 25.675781 19.992188 25.296875 20.644531 25.296875 L 23.402344 25.296875 C 24.710938 25.296875 25.78125 24.226562 25.78125 22.917969 L 25.78125 20.164062 C 25.78125 19.507812 26.160156 18.59375 26.625 18.132812 L 28.574219 16.183594 C 29.496094 15.257812 29.496094 13.742188 28.574219 12.816406 Z M 13.09375 19.855469 L 7.839844 14.601562 L 9.523438 12.917969 L 13.09375 16.488281 L 20.441406 9.140625 L 22.125 10.824219 Z M 13.09375 19.855469 "/>
</g>
</g>
</svg>
